<?xml version="1.0" encoding="UTF-8"?> <svg xmlns="http://www.w3.org/2000/svg" width="158" height="152" viewBox="0 0 158 152" fill="none"> <path d="M75.3687 11.7885C76.9509 9.40382 80.4526 9.40382 82.0348 11.7885L102.153 42.1106C102.685 42.9117 103.487 43.4945 104.413 43.7525L139.468 53.5162C142.225 54.2841 143.307 57.6144 141.528 59.8561L118.907 88.3599C118.309 89.1129 118.003 90.056 118.044 91.0165L119.59 127.373C119.712 130.232 116.879 132.29 114.197 131.291L80.0984 118.585C79.1976 118.25 78.206 118.25 77.3051 118.585L43.2061 131.291C40.5243 132.29 37.6914 130.232 37.813 127.373L39.3598 91.0165C39.4006 90.056 39.0942 89.1129 38.4966 88.3599L15.8755 59.8561C14.0965 57.6144 15.1785 54.2841 17.9355 53.5162L52.9904 43.7525C53.9165 43.4945 54.7188 42.9117 55.2503 42.1106L75.3687 11.7885Z" fill="#073E3A"></path> <path fill-rule="evenodd" clip-rule="evenodd" d="M109.25 34.719L90.3675 6.25987C84.8297 -2.08664 72.5738 -2.08661 67.036 6.25987L48.1536 34.719L15.2523 43.8829C5.60306 46.5705 1.8158 58.2266 8.0425 66.0725L29.2738 92.8251L27.8221 126.948C27.3963 136.955 37.3116 144.159 46.6977 140.662L78.7018 128.737L110.706 140.662C120.092 144.159 130.007 136.955 129.581 126.948L128.13 92.8251L149.361 66.0725C155.588 58.2265 151.8 46.5705 142.151 43.8829L109.25 34.719ZM82.0348 11.7885C80.4526 9.40382 76.9509 9.40382 75.3687 11.7885L55.2503 42.1106C54.7188 42.9117 53.9165 43.4945 52.9904 43.7525L17.9355 53.5162C15.1785 54.2841 14.0965 57.6144 15.8755 59.8561L38.4966 88.3599C39.0942 89.1129 39.4006 90.056 39.3598 91.0165L37.8131 127.373C37.6914 130.232 40.5243 132.29 43.2061 131.291L77.3051 118.585C78.206 118.25 79.1976 118.25 80.0984 118.585L114.197 131.291C116.879 132.29 119.712 130.232 119.59 127.373L118.044 91.0165C118.003 90.056 118.309 89.1129 118.907 88.3599L141.528 59.8561C143.307 57.6144 142.225 54.2841 139.468 53.5162L104.413 43.7525C103.487 43.4945 102.685 42.9117 102.153 42.1106L82.0348 11.7885Z" fill="white"></path> <g filter="url(#filter0_d_419_13)"> <path d="M75.3687 11.7884C76.9509 9.40374 80.4526 9.40373 82.0349 11.7884L102.153 42.1105C102.685 42.9116 103.487 43.4945 104.413 43.7524L139.468 53.5161C142.225 54.284 143.307 57.6143 141.528 59.856L118.907 88.3598C118.309 89.1129 118.003 90.0559 118.044 91.0164L119.59 127.373C119.712 130.232 116.879 132.29 114.197 131.291L80.0984 118.585C79.1976 118.25 78.206 118.25 77.3051 118.585L43.2061 131.291C40.5244 132.29 37.6914 130.232 37.8131 127.373L39.3598 91.0164C39.4007 90.0559 39.0942 89.1129 38.4966 88.3598L15.8755 59.856C14.0965 57.6143 15.1785 54.284 17.9355 53.5161L52.9905 43.7524C53.9166 43.4945 54.7188 42.9116 55.2503 42.1105L75.3687 11.7884Z" fill="#6BCB48"></path> <path d="M106.114 39.0357L86.2012 9.02411C82.6412 3.6585 74.7624 3.65852 71.2024 9.02411L51.2899 39.0357L16.5939 48.6995C10.3908 50.4272 7.95614 57.9204 11.959 62.9642L34.3485 91.1762L32.8176 127.16C32.5439 133.594 38.918 138.225 44.9519 135.976L78.7018 123.401L112.452 135.976C118.486 138.225 124.86 133.594 124.586 127.16L123.055 91.1762L145.445 62.9642C149.447 57.9204 147.013 50.4272 140.81 48.6995L106.114 39.0357Z" stroke="white" stroke-width="10"></path> </g> <defs> <filter id="filter0_d_419_13" x="0" y="0" width="157.404" height="151.557" filterUnits="userSpaceOnUse" color-interpolation-filters="sRGB"> <feFlood flood-opacity="0" result="BackgroundImageFix"></feFlood> <feColorMatrix in="SourceAlpha" type="matrix" values="0 0 0 0 0 0 0 0 0 0 0 0 0 0 0 0 0 0 127 0" result="hardAlpha"></feColorMatrix> <feOffset dy="5"></feOffset> <feGaussianBlur stdDeviation="2.5"></feGaussianBlur> <feColorMatrix type="matrix" values="0 0 0 0 0 0 0 0 0 0 0 0 0 0 0 0 0 0 0.25 0"></feColorMatrix> <feBlend mode="normal" in2="BackgroundImageFix" result="effect1_dropShadow_419_13"></feBlend> <feBlend mode="normal" in="SourceGraphic" in2="effect1_dropShadow_419_13" result="shape"></feBlend> </filter> </defs> </svg> 